<svg preserveAspectRatio="none" width="100%" height="100%" overflow="visible" style="display: block;" viewBox="0 0 434.711 285.471" fill="none" xmlns="http://www.w3.org/2000/svg">
<g id="Group 4">
<path id="Line 4" d="M434.355 284.944C425.97 277.275 418.594 274.41 407.23 274.41C395.867 274.41 391.469 284.944 380.105 284.944C368.742 284.944 364.344 274.41 352.98 274.41C341.617 274.41 337.219 284.944 325.855 284.944C314.492 284.944 310.094 274.41 298.73 274.41C287.367 274.41 282.969 284.944 271.605 284.944C260.242 284.944 255.844 274.41 244.48 274.41C233.117 274.41 228.719 284.944 217.355 284.944C205.992 284.944 201.594 274.41 190.23 274.41C178.867 274.41 174.469 284.944 163.105 284.944C151.742 284.944 147.344 274.41 135.98 274.41C124.617 274.41 120.219 284.944 108.855 284.944C97.4918 284.944 93.0942 274.41 81.7305 274.41C70.3668 274.41 65.9692 284.944 54.6055 284.944C43.2418 284.944 38.8442 274.41 27.4805 274.41C16.1168 274.41 8.74076 277.275 0.355487 284.944" stroke="var(--stroke-0, #FAF9F5)" stroke-width="1.0534"/>
<path id="Line 5" d="M434.355 263.876C425.97 256.207 418.594 253.342 407.23 253.342C395.867 253.342 391.469 263.876 380.105 263.876C368.742 263.876 364.344 253.342 352.98 253.342C341.617 253.342 337.219 263.876 325.855 263.876C314.492 263.876 310.094 253.342 298.73 253.342C287.367 253.342 282.969 263.876 271.605 263.876C260.242 263.876 255.844 253.342 244.48 253.342C233.117 253.342 228.719 263.876 217.355 263.876C205.992 263.876 201.594 253.342 190.23 253.342C178.867 253.342 174.469 263.876 163.105 263.876C151.742 263.876 147.344 253.342 135.98 253.342C124.617 253.342 120.219 263.876 108.855 263.876C97.4918 263.876 93.0942 253.342 81.7305 253.342C70.3668 253.342 65.9692 263.876 54.6055 263.876C43.2418 263.876 38.8442 253.342 27.4805 253.342C16.1168 253.342 8.74076 256.207 0.355487 263.876" stroke="var(--stroke-0, #FAF9F5)" stroke-width="1.0534"/>
<path id="Line 6" d="M434.355 242.808C425.97 235.139 418.594 232.274 407.23 232.274C395.867 232.274 391.469 242.808 380.105 242.808C368.742 242.808 364.344 232.274 352.98 232.274C341.617 232.274 337.219 242.808 325.855 242.808C314.492 242.808 310.094 232.274 298.73 232.274C287.367 232.274 282.969 242.808 271.605 242.808C260.242 242.808 255.844 232.274 244.48 232.274C233.117 232.274 228.719 242.808 217.355 242.808C205.992 242.808 201.594 232.274 190.23 232.274C178.867 232.274 174.469 242.808 163.105 242.808C151.742 242.808 147.344 232.274 135.98 232.274C124.617 232.274 120.219 242.808 108.855 242.808C97.4918 242.808 93.0942 232.274 81.7305 232.274C70.3668 232.274 65.9692 242.808 54.6055 242.808C43.2418 242.808 38.8442 232.274 27.4805 232.274C16.1168 232.274 8.74076 235.139 0.355487 242.808" stroke="var(--stroke-0, #FAF9F5)" stroke-width="1.0534"/>
<path id="Line 7" d="M434.355 221.74C425.97 214.071 418.594 211.206 407.23 211.206C395.867 211.206 391.469 221.74 380.105 221.74C368.742 221.74 364.344 211.206 352.98 211.206C341.617 211.206 337.219 221.74 325.855 221.74C314.492 221.74 310.094 211.206 298.73 211.206C287.367 211.206 282.969 221.74 271.605 221.74C260.242 221.74 255.844 211.206 244.48 211.206C233.117 211.206 228.719 221.74 217.355 221.74C205.992 221.74 201.594 211.206 190.23 211.206C178.867 211.206 174.469 221.74 163.105 221.74C151.742 221.74 147.344 211.206 135.98 211.206C124.617 211.206 120.219 221.74 108.855 221.74C97.4918 221.74 93.0942 211.206 81.7305 211.206C70.3668 211.206 65.9692 221.74 54.6055 221.74C43.2418 221.74 38.8442 211.206 27.4805 211.206C16.1168 211.206 8.74076 214.071 0.355487 221.74" stroke="var(--stroke-0, #FAF9F5)" stroke-width="1.0534"/>
<path id="Line 8" d="M434.355 200.672C425.97 193.003 418.594 190.138 407.23 190.138C395.867 190.138 391.469 200.672 380.105 200.672C368.742 200.672 364.344 190.138 352.98 190.138C341.617 190.138 337.219 200.672 325.855 200.672C314.492 200.672 310.094 190.138 298.73 190.138C287.367 190.138 282.969 200.672 271.605 200.672C260.242 200.672 255.844 190.138 244.48 190.138C233.117 190.138 228.719 200.672 217.355 200.672C205.992 200.672 201.594 190.138 190.23 190.138C178.867 190.138 174.469 200.672 163.105 200.672C151.742 200.672 147.344 190.138 135.98 190.138C124.617 190.138 120.219 200.672 108.855 200.672C97.4918 200.672 93.0942 190.138 81.7305 190.138C70.3668 190.138 65.9692 200.672 54.6055 200.672C43.2418 200.672 38.8442 190.138 27.4805 190.138C16.1168 190.138 8.74076 193.003 0.355487 200.672" stroke="var(--stroke-0, #FAF9F5)" stroke-width="1.0534"/>
<path id="Line 9" d="M434.355 179.604C425.97 171.935 418.594 169.07 407.23 169.07C395.867 169.07 391.469 179.604 380.105 179.604C368.742 179.604 364.344 169.07 352.98 169.07C341.617 169.07 337.219 179.604 325.855 179.604C314.492 179.604 310.094 169.07 298.73 169.07C287.367 169.07 282.969 179.604 271.605 179.604C260.242 179.604 255.844 169.07 244.48 169.07C233.117 169.07 228.719 179.604 217.355 179.604C205.992 179.604 201.594 169.07 190.23 169.07C178.867 169.07 174.469 179.604 163.105 179.604C151.742 179.604 147.344 169.07 135.98 169.07C124.617 169.07 120.219 179.604 108.855 179.604C97.4918 179.604 93.0942 169.07 81.7305 169.07C70.3668 169.07 65.9692 179.604 54.6055 179.604C43.2418 179.604 38.8442 169.07 27.4805 169.07C16.1168 169.07 8.74076 171.935 0.355487 179.604" stroke="var(--stroke-0, #FAF9F5)" stroke-width="1.0534"/>
<path id="Line 10" d="M434.355 158.536C425.97 150.867 418.594 148.002 407.23 148.002C395.867 148.002 391.469 158.536 380.105 158.536C368.742 158.536 364.344 148.002 352.98 148.002C341.617 148.002 337.219 158.536 325.855 158.536C314.492 158.536 310.094 148.002 298.73 148.002C287.367 148.002 282.969 158.536 271.605 158.536C260.242 158.536 255.844 148.002 244.48 148.002C233.117 148.002 228.719 158.536 217.355 158.536C205.992 158.536 201.594 148.002 190.23 148.002C178.867 148.002 174.469 158.536 163.105 158.536C151.742 158.536 147.344 148.002 135.98 148.002C124.617 148.002 120.219 158.536 108.855 158.536C97.4918 158.536 93.0942 148.002 81.7305 148.002C70.3668 148.002 65.9692 158.536 54.6055 158.536C43.2418 158.536 38.8442 148.002 27.4805 148.002C16.1168 148.002 8.74076 150.867 0.355487 158.536" stroke="var(--stroke-0, #FAF9F5)" stroke-width="1.0534"/>
<path id="Line 11" d="M434.355 137.468C425.97 129.799 418.594 126.934 407.23 126.934C395.867 126.934 391.469 137.468 380.105 137.468C368.742 137.468 364.344 126.934 352.98 126.934C341.617 126.934 337.219 137.468 325.855 137.468C314.492 137.468 310.094 126.934 298.73 126.934C287.367 126.934 282.969 137.468 271.605 137.468C260.242 137.468 255.844 126.934 244.48 126.934C233.117 126.934 228.719 137.468 217.355 137.468C205.992 137.468 201.594 126.934 190.23 126.934C178.867 126.934 174.469 137.468 163.105 137.468C151.742 137.468 147.344 126.934 135.98 126.934C124.617 126.934 120.219 137.468 108.855 137.468C97.4918 137.468 93.0942 126.934 81.7305 126.934C70.3668 126.934 65.9692 137.468 54.6055 137.468C43.2418 137.468 38.8442 126.934 27.4805 126.934C16.1168 126.934 8.74076 129.799 0.355487 137.468" stroke="var(--stroke-0, #FAF9F5)" stroke-width="1.0534"/>
<path id="Line 12" d="M434.355 116.4C425.97 108.731 418.594 105.867 407.23 105.867C395.867 105.867 391.469 116.4 380.105 116.4C368.742 116.4 364.344 105.867 352.98 105.867C341.617 105.867 337.219 116.4 325.855 116.4C314.492 116.4 310.094 105.867 298.73 105.867C287.367 105.867 282.969 116.4 271.605 116.4C260.242 116.4 255.844 105.867 244.48 105.867C233.117 105.867 228.719 116.4 217.355 116.4C205.992 116.4 201.594 105.867 190.23 105.867C178.867 105.867 174.469 116.4 163.105 116.4C151.742 116.4 147.344 105.867 135.98 105.867C124.617 105.867 120.219 116.4 108.855 116.4C97.4918 116.4 93.0942 105.867 81.7305 105.867C70.3668 105.867 65.9692 116.4 54.6055 116.4C43.2418 116.4 38.8442 105.867 27.4805 105.867C16.1168 105.867 8.74076 108.731 0.355487 116.4" stroke="var(--stroke-0, #FAF9F5)" stroke-width="1.0534"/>
<path id="Line 13" d="M434.355 95.3325C425.97 87.663 418.594 84.7985 407.23 84.7985C395.867 84.7985 391.469 95.3325 380.105 95.3325C368.742 95.3325 364.344 84.7985 352.98 84.7985C341.617 84.7985 337.219 95.3325 325.855 95.3325C314.492 95.3325 310.094 84.7985 298.73 84.7985C287.367 84.7985 282.969 95.3325 271.605 95.3325C260.242 95.3325 255.844 84.7985 244.48 84.7985C233.117 84.7985 228.719 95.3325 217.355 95.3325C205.992 95.3325 201.594 84.7985 190.23 84.7985C178.867 84.7985 174.469 95.3325 163.105 95.3325C151.742 95.3325 147.344 84.7985 135.98 84.7985C124.617 84.7985 120.219 95.3325 108.855 95.3325C97.4918 95.3325 93.0942 84.7985 81.7305 84.7985C70.3668 84.7985 65.9692 95.3325 54.6055 95.3325C43.2418 95.3325 38.8442 84.7985 27.4805 84.7985C16.1168 84.7985 8.74076 87.663 0.355487 95.3325" stroke="var(--stroke-0, #FAF9F5)" stroke-width="1.0534"/>
<path id="Line 14" d="M434.355 74.2646C425.97 66.5951 418.594 63.7306 407.23 63.7306C395.867 63.7306 391.469 74.2646 380.105 74.2646C368.742 74.2646 364.344 63.7306 352.98 63.7306C341.617 63.7306 337.219 74.2646 325.855 74.2646C314.492 74.2646 310.094 63.7306 298.73 63.7306C287.367 63.7306 282.969 74.2646 271.605 74.2646C260.242 74.2646 255.844 63.7306 244.48 63.7306C233.117 63.7306 228.719 74.2646 217.355 74.2646C205.992 74.2646 201.594 63.7306 190.23 63.7306C178.867 63.7306 174.469 74.2646 163.105 74.2646C151.742 74.2646 147.344 63.7306 135.98 63.7306C124.617 63.7306 120.219 74.2646 108.855 74.2646C97.4918 74.2646 93.0942 63.7306 81.7305 63.7306C70.3668 63.7306 65.9692 74.2646 54.6055 74.2646C43.2418 74.2646 38.8442 63.7306 27.4805 63.7306C16.1168 63.7306 8.74076 66.5951 0.355487 74.2646" stroke="var(--stroke-0, #FAF9F5)" stroke-width="1.0534"/>
<path id="Line 15" d="M434.355 53.1966C425.97 45.5271 418.594 42.6626 407.23 42.6626C395.867 42.6626 391.469 53.1966 380.105 53.1966C368.742 53.1966 364.344 42.6626 352.98 42.6626C341.617 42.6626 337.219 53.1966 325.855 53.1966C314.492 53.1966 310.094 42.6626 298.73 42.6626C287.367 42.6626 282.969 53.1966 271.605 53.1966C260.242 53.1966 255.844 42.6626 244.48 42.6626C233.117 42.6626 228.719 53.1966 217.355 53.1966C205.992 53.1966 201.594 42.6626 190.23 42.6626C178.867 42.6626 174.469 53.1966 163.105 53.1966C151.742 53.1966 147.344 42.6626 135.98 42.6626C124.617 42.6626 120.219 53.1966 108.855 53.1966C97.4918 53.1966 93.0942 42.6626 81.7305 42.6626C70.3668 42.6626 65.9692 53.1966 54.6055 53.1966C43.2418 53.1966 38.8442 42.6626 27.4805 42.6626C16.1168 42.6626 8.74076 45.5271 0.355487 53.1966" stroke="var(--stroke-0, #FAF9F5)" stroke-width="1.0534"/>
<path id="Line 16" d="M434.355 32.1286C425.97 24.4591 418.594 21.5947 407.23 21.5947C395.867 21.5947 391.469 32.1286 380.105 32.1286C368.742 32.1286 364.344 21.5947 352.98 21.5947C341.617 21.5947 337.219 32.1286 325.855 32.1286C314.492 32.1286 310.094 21.5947 298.73 21.5947C287.367 21.5947 282.969 32.1286 271.605 32.1286C260.242 32.1286 255.844 21.5947 244.48 21.5947C233.117 21.5947 228.719 32.1286 217.355 32.1286C205.992 32.1286 201.594 21.5947 190.23 21.5947C178.867 21.5947 174.469 32.1286 163.105 32.1286C151.742 32.1286 147.344 21.5947 135.98 21.5947C124.617 21.5947 120.219 32.1286 108.855 32.1286C97.4918 32.1286 93.0942 21.5947 81.7305 21.5947C70.3668 21.5947 65.9692 32.1286 54.6055 32.1286C43.2418 32.1286 38.8442 21.5947 27.4805 21.5947C16.1168 21.5947 8.74076 24.4591 0.355487 32.1286" stroke="var(--stroke-0, #FAF9F5)" stroke-width="1.0534"/>
<path id="Line 17" d="M434.355 11.0607C425.97 3.39117 418.594 0.526699 407.23 0.526699C395.867 0.526699 391.469 11.0607 380.105 11.0607C368.742 11.0607 364.344 0.526699 352.98 0.526699C341.617 0.526699 337.219 11.0607 325.855 11.0607C314.492 11.0607 310.094 0.526699 298.73 0.526699C287.367 0.526699 282.969 11.0607 271.605 11.0607C260.242 11.0607 255.844 0.526699 244.48 0.526699C233.117 0.526699 228.719 11.0607 217.355 11.0607C205.992 11.0607 201.594 0.526699 190.23 0.526699C178.867 0.526699 174.469 11.0607 163.105 11.0607C151.742 11.0607 147.344 0.526699 135.98 0.526699C124.617 0.526699 120.219 11.0607 108.855 11.0607C97.4918 11.0607 93.0942 0.526699 81.7305 0.526699C70.3668 0.526699 65.9692 11.0607 54.6055 11.0607C43.2418 11.0607 38.8442 0.526699 27.4805 0.526699C16.1168 0.526699 8.74076 3.39117 0.355487 11.0607" stroke="var(--stroke-0, #FAF9F5)" stroke-width="1.0534"/>
</g>
</svg>
